<svg id="Группа_3" data-name="Группа 3" xmlns="http://www.w3.org/2000/svg" width="278" height="279" viewBox="0 0 278 279">
  <defs>
    <style>
      .cls-1 {
        fill: #f6bb42;
      }

      .cls-1, .cls-2 {
        fill-rule: evenodd;
      }

      .cls-2 {
        fill: #ffce54;
      }
    </style>
  </defs>
  <path id="Фигура_1_копия_5" data-name="Фигура 1 копия 5" class="cls-1" d="M139.453-16.678C141.252,105.427,356.465,147.766,244,286H34C-78.308,147.775,138,105.613,138-12c-0.2-9.414,1-1,1-1C136.154-26.314,138.517-13.368,139.453-16.678ZM175,252,152,6m21-31"/>
  <path id="Прямоугольник_1_копия_13" data-name="Прямоугольник 1 копия 13" class="cls-2" d="M233.429,155.875L247,142.31c6.653,8.307,17.637,23.13,23.657,38.6L264.572,187ZM171.143,93.626L186.2,78.583c4.876,6.631,19.139,20.121,30.672,31.6l-14.582,14.573ZM132,22c4.968-11.731,7-30,7-30s1.975,7.815,8,28c2.114,5.918,4.13,12.15,12.028,23.485L140,62.5,121.366,43.879C127.3,33.014,127.032,33.731,132,22ZM77.714,124.751L62.839,109.884C77.826,95.59,78.789,94.371,94.057,78.835l14.8,14.792ZM15.428,187l-7.24-7.236c7.1-14.3,10.177-19.269,24.437-37.826l13.945,13.937Zm31.143,31.125L15.428,249.249,7.44,241.266C3.855,229.984.631,214.841,2.631,199.789L15.428,187Zm62.286,62.249H46.571l31.143-31.125Zm93.429-31.125,31.143,31.125H171.143ZM264.572,187l10.919,10.913c0.952,14.723,2.5,22.482-6.209,46.629l-4.71,4.707-31.143-31.124Zm-93.429-31.125,31.143-31.124,31.143,31.124L202.286,187ZM108.857,93.626L140,62.5l31.143,31.124L140,124.751ZM77.714,187L46.571,155.875l31.143-31.124,31.143,31.124Zm31.143,31.125L77.714,249.249,46.571,218.125,77.714,187Zm62.286,62.249H108.857L140,249.249ZM202.286,187l31.143,31.125-31.143,31.124-31.143-31.124Zm-93.429-31.125L140,124.751l31.143,31.124L140,187Zm62.286,62.25L140,249.249l-31.143-31.124L140,187Zm68.738,68.7a20.492,20.492,0,0,0-6.452-6.448l31.143-31.125,1.828,1.827C261.831,264.409,244.957,284.6,239.881,286.822Zm-227.629-34.4,3.176-3.174,31.143,31.125L38.95,287.99C34.179,287.725,21.091,271.344,12.252,252.423Z"/>
</svg>
